<svg width="24" height="24" viewBox="0 0 24 24" fill="none"
  xmlns="http://www.w3.org/2000/svg">
  <!-- GitHub Octocat head -->
  <path fill-rule="evenodd" clip-rule="evenodd" d="M12 0C5.373 0 0 5.373 0 12c0 5.302 3.438 9.8 8.207 11.387.6.11.82-.26.82-.58 0-.28-.01-1.02-.01-2.002-3.337.724-4.042-1.61-4.042-1.61-.546-1.387-1.332-1.758-1.332-1.758-1.09-.744.08-.729.08-.729 1.205.086 1.838 1.238 1.838 1.238 1.07 1.834 2.809 1.304 3.492.997.108-.775.42-1.304.762-1.602-2.665-.304-5.467-1.334-5.467-5.932 0-1.31.467-2.382 1.232-3.226-.123-.304-.535-1.523.117-3.176 0 0 1.007-.323 3.301 1.23.957-.266 1.983-.4 3.003-.404 1.02.004 2.046.138 3.003.404 2.294-1.553 3.3-1.23 3.3-1.23.652 1.653.24 2.872.117 3.176.765.844 1.232 1.916 1.232 3.226 0 4.61-2.806 5.624-5.479 5.923.43.37.818 1.12.818 2.259 0 1.602-.015 2.89-.015 3.28 0 .318.216.69.825.577C20.565 21.8 24 17.302 24 12c0-6.627-5.373-12-12-12z" fill="#333333"/>
  <!-- Simple page icon (rectangle) -->
  <rect x="14" y="3" width="7" height="9" rx="1" fill="#4CAF50"/>
  <!-- Page content lines -->
  <rect x="15" y="5" width="5" height="1" fill="white"/>
  <rect x="15" y="7" width="5" height="1" fill="white"/>
  <rect x="15" y="9" width="3" height="1" fill="white"/>
</svg>